<?xml version="1.0" encoding="UTF-8" standalone="no"?>
<!-- Created with Inkscape (http://www.inkscape.org/) -->

<svg
   width="31.541662mm"
   height="31.541672mm"
   viewBox="0 0 31.541662 31.541672"
   version="1.1"
   id="svg1"
   xmlns="http://www.w3.org/2000/svg"
   xmlns:svg="http://www.w3.org/2000/svg">
  <defs
     id="defs1" />
  <g
     id="layer1"
     transform="translate(-89.164579,-132.82083)">
    <rect
       ry="1.4428458"
       y="133.18419"
       x="89.527946"
       height="30.814939"
       width="30.814938"
       id="rect6092"
       style="fill:#477384;fill-opacity:0.972549;stroke:#a8c5d0;stroke-width:0.726729;stroke-linecap:round;stroke-linejoin:round;stroke-miterlimit:4;stroke-dasharray:none;stroke-dashoffset:0;stroke-opacity:1" />
    <path
       id="path6094"
       d="m 101.5152,134.81949 -10.285875,9.83866 3.34093,13.46896 13.416345,4.15644 10.15434,-9.6019 -3.07787,-13.78464 z"
       style="fill:#2d4955;fill-opacity:1;stroke:none;stroke-width:0.147317px;stroke-linecap:butt;stroke-linejoin:miter;stroke-opacity:1" />
    <path
       id="path6096"
       d="m 117.02551,145.58825 c 1.31111,5.40801 1.65368,6.90742 1.60377,7.02001 -0.044,0.0993 -1.6346,1.63594 -5.19714,5.02084 -5.07321,4.82025 -5.13547,4.87765 -5.28951,4.87125 -0.25519,-0.0105 -13.571595,-3.9738 -13.658805,-4.0652 -0.0867,-0.0909 -3.42088,-13.57881 -3.42011,-13.83566 4.5e-4,-0.15372 0.0605,-0.21305 5.11367,-5.05469 3.54838,-3.40004 5.157835,-4.91653 5.259155,-4.95584 0.11488,-0.0446 1.59559,0.36847 6.94778,1.93823 3.78293,1.10951 6.83999,2.03692 6.88786,2.08955 0.0475,0.0519 0.83633,3.18922 1.7533,6.9715 z m -5.27979,-2.96462 c -9.9e-4,0.0522 5.35187,7.49905 5.42822,7.55139 0.0306,0.021 -0.51388,-2.30338 -1.21001,-5.16523 l -1.26568,-5.20339 -1.47593,1.38756 c -0.81167,0.76325 -1.4762,1.40652 -1.47666,1.4296 z m -3.18912,-5.11699 c -2.63575,-0.77337 -4.78393,-1.38679 -4.77372,-1.36314 0.018,0.0419 6.99731,5.60066 7.21104,5.74339 l 0.10752,0.0719 1.48312,-1.41511 1.48314,-1.4151 -0.35942,-0.10788 c -0.19769,-0.0593 -2.51596,-0.74064 -5.15172,-1.51401 z m 2.72499,6.08651 c -0.14346,0.45289 -3.9894,13.2024 -3.99077,13.22962 -0.003,0.0512 -0.51339,0.27631 5.15807,-2.27402 2.77549,-1.24807 5.04674,-2.29177 5.04725,-2.31933 4.8e-4,-0.0274 -1.38243,-1.97541 -3.07316,-4.32855 -1.69072,-2.35315 -3.08594,-4.29531 -3.10047,-4.31596 -0.0147,-0.0204 -0.033,-0.0169 -0.0409,0.008 z M 105.89,138.98303 c -2.24299,-1.78357 -4.10062,-3.24348 -4.12809,-3.24423 -0.0557,-0.002 -5.115315,9.92958 -5.077105,9.96538 0.0134,0.0126 2.85497,-0.68936 6.314845,-1.55956 7.96057,-2.0022 7.17872,-1.79597 7.06366,-1.86314 -0.0524,-0.0305 -1.93034,-1.51486 -4.17331,-3.29845 z m -2.33844,5.9373 -6.863255,1.72481 2.40846,2.54502 c 1.324605,1.39978 3.501705,3.68156 4.838015,5.07059 l 2.42954,2.52559 2.04486,-6.77537 c 1.12467,-3.72645 2.03603,-6.78439 2.02524,-6.79541 -0.0106,-0.0109 -3.10808,0.75611 -6.88286,1.70477 z m 8.03116,10.99783 c -2.38583,1.07446 -4.36377,1.97371 -4.39541,1.99832 -0.0346,0.0268 0.16655,0.66889 0.50236,1.60421 0.30796,0.85768 0.58023,1.60109 0.60508,1.65203 0.0428,0.0878 0.24573,-0.0988 3.87015,-3.55696 2.10375,-2.00726 3.80939,-3.64995 3.79034,-3.65039 -0.019,-3.9e-4 -1.98673,0.8783 -4.37254,1.95278 z M 92.338005,144.46233 c -0.002,0.0716 3.2128,1.36115 3.25913,1.30741 0.033,-0.0382 3.99849,-7.80761 4.36802,-8.55796 0.01,-0.0196 -1.70233,1.59605 -3.80439,3.59067 -2.10215,1.99453 -3.82215,3.64172 -3.82285,3.65978 z m 3.80539,3.13553 c -0.007,0.093 -0.19924,2.37863 -0.42669,5.07921 -0.22744,2.70055 -0.39881,4.92556 -0.38081,4.94442 0.018,0.0188 2.24858,-0.048 4.956845,-0.14839 2.70827,-0.10049 5.00042,-0.18503 5.09364,-0.1879 l 0.1695,-0.005 -4.69968,-4.92561 -4.699665,-4.92561 z m 5.751855,10.71661 c -2.362385,0.0852 -4.271755,0.16613 -4.243045,0.17979 0.18186,0.0865 9.759535,2.88545 9.743135,2.8473 -0.0111,-0.0261 -0.26552,-0.73809 -0.56518,-1.58236 -0.29964,-0.84428 -0.56617,-1.54958 -0.59224,-1.56735 -0.0261,-0.0177 -1.98028,0.0374 -4.34267,0.12262 z m -8.212795,-12.29765 c -0.82595,-0.34212 -1.51022,-0.62294 -1.52059,-0.62404 -0.0186,-10e-4 2.36821,9.77085 2.4121,9.87612 0.0125,0.03 0.0965,-0.83286 0.18651,-1.91756 0.0901,-1.0847 0.25139,-3.0259 0.3585,-4.3138 0.10712,-1.2879 0.16561,-2.35447 0.12999,-2.37016 -0.0356,-0.0157 -0.74056,-0.30844 -1.56651,-0.65056 z"
       style="fill:#e1ecf1;fill-opacity:1;stroke-width:0.0561026" />
  </g>
</svg>
